<svg width="142" height="142" viewBox="0 0 142 142" fill="none" xmlns="http://www.w3.org/2000/svg">
<circle cx="71" cy="71" r="70.3532" stroke="white" stroke-width="1.2935"/>
<path d="M49.1505 69.8611C50.0575 70.3495 50.0575 71.6505 49.1505 72.1389L40.1724 76.9733C39.3106 77.4373 38.2656 76.8132 38.2656 75.8344L38.2656 66.1656C38.2656 65.1868 39.3106 64.5627 40.1724 65.0267L49.1505 69.8611Z" fill="white"/>
<path d="M60.6324 76.5V71.73H63.9624C66.3384 71.73 67.7244 70.074 67.7244 68.112C67.7244 66.15 66.3744 64.494 63.9624 64.494H59.1384V76.5H60.6324ZM63.7824 70.398H60.6324V65.826H63.7824C65.2044 65.826 66.1764 66.762 66.1764 68.112C66.1764 69.462 65.2044 70.398 63.7824 70.398ZM76.7768 76.5V75.168H71.1968V64.494H69.7028V76.5H76.7768ZM89.1566 76.5L84.3146 64.494H82.4606L77.6366 76.5H79.3466L80.4086 73.836H86.3846L87.4466 76.5H89.1566ZM85.9346 72.504H80.8406L83.3966 66.042L85.9346 72.504ZM94.5697 76.5V71.424L99.2857 64.494H97.5397L93.8137 70.074L90.0877 64.494H88.3417L93.0757 71.424V76.5H94.5697Z" fill="white"/>
</svg>
